# xmcd CD database file
#
# Track frame offsets:
#	150
#	19730
#	37437
#
# Disc length: 830 seconds
#
# Revision: 0
# Processed by: cddbd v1.5.1PL0 Copyright (c) Steve Scherf et al.
# Submitted via: CDex 1.51
#
DISCID=23033c03
DTITLE=サラブレンド - スロウ
DYEAR=2004
DGENRE=Vocal
TTITLE0=スロウ
TTITLE1=ピストル
TTITLE2=小さな花
EXTD=YEAR: 2004
EXTT0=
EXTT1=
EXTT2=
PLAYORDER=
